# xmcd CD database file
#
# Track frame offsets:
#	150
#	36100
#	56485
#	89986
#	104426
#	125853
#	148855
#	168597
#	196719
#	238575
#	261477
#
# Disc length: 3832 seconds
#
# Revision: 0
# Processed by: cddbd v1.5.2PL0 Copyright (c) Steve Scherf et al.
# Submitted via: CDex 1.70beta2
#
DISCID=aa0ef60b
DTITLE=Various Artist - Mark Hummel's Harmonica Blowout Disc 2
DYEAR=1900
DGENRE=Blues
TTITLE0=Rick Estrin - Gettin' Out Of Town
TTITLE1=Billy Boy Arnold - Sugar Gal
TTITLE2=Paul Delay - Can't Stand Your Evil Ways
TTITLE3=Lazy Lester - Suger Coated Love
TTITLE4=Paul Delay - Mean Old Frisco
TTITLE5=Mark Hummel - Hard Hearted Woman
TTITLE6=Magic Dick - High Temperature
TTITLE7=Sam Myers - Sweet Home Chicago
TTITLE8=Lee Oskar - Lee's Blues
TTITLE9=William Clarke - Chrome Jumpin'
TTITLE10=Mark Hummel - Summertme
EXTD=
EXTT0=
EXTT1=
EXTT2=
EXTT3=
EXTT4=
EXTT5=
EXTT6=
EXTT7=
EXTT8=
EXTT9=
EXTT10=
PLAYORDER=
